<svg width="115" height="38" viewBox="0 0 115 38" fill="none" xmlns="http://www.w3.org/2000/svg">
<mask id="mask0" mask-type="alpha" maskUnits="userSpaceOnUse" x="0" y="0" width="38" height="38">
<path d="M0 16.6263C0 5.17865 5.29962 0 16.6263 0H20.3852C31.8924 0 37.0115 5.2232 37.0115 16.6263V20.3852C37.0115 31.2814 31.4024 37.0115 20.3852 37.0115H16.6263C5.43326 37.0115 0 31.7714 0 20.3852V16.6263Z" fill="#11A4D0"/>
</mask>
<g mask="url(#mask0)">
<path d="M37.0115 0H0V37.0115H37.0115V0Z" fill="#00B0FF"/>
<path opacity="0.3" d="M18.5057 32.9772C26.4981 32.9772 32.9772 26.4981 32.9772 18.5057C32.9772 10.5133 26.4981 4.03424 18.5057 4.03424C10.5133 4.03424 4.03424 10.5133 4.03424 18.5057C4.03424 26.4981 10.5133 32.9772 18.5057 32.9772Z" fill="#00CCFF"/>
<path opacity="0.5" d="M18.506 28.906C24.2499 28.906 28.9062 24.2496 28.9062 18.5058C28.9062 12.7619 24.2499 8.10553 18.506 8.10553C12.7621 8.10553 8.10577 12.7619 8.10577 18.5058C8.10577 24.2496 12.7621 28.906 18.506 28.906Z" fill="#00CCFF"/>
<path d="M25.649 5.55178C25.4639 4.9596 24.7977 4.70052 24.2796 5.03362C23.5393 5.47776 22.429 6.32902 21.0596 7.69845L20.4304 7.29132C20.6154 6.88419 20.4674 6.36603 20.0603 6.14396C19.6161 5.84787 19.0239 5.99592 18.7649 6.44006C18.4688 6.88419 18.6168 7.47638 19.061 7.73546C19.4681 7.99454 19.9492 7.92052 20.2823 7.5504L20.8375 7.92052C20.2823 8.47569 19.6901 9.14189 19.061 9.91914L18.5428 9.58603C18.7278 9.17891 18.5798 8.66075 18.1727 8.43868C17.7285 8.14258 17.1364 8.29063 16.8773 8.73477C16.5812 9.17891 16.7292 9.77109 17.1734 10.0302C17.5805 10.2893 18.0616 10.2152 18.3947 9.84511L18.8759 10.1412C18.3577 10.7704 17.8396 11.4736 17.2844 12.2509L16.6182 11.8437C16.8033 11.4366 16.6552 10.9184 16.2481 10.6964C15.8039 10.4003 15.2118 10.5483 14.9527 10.9925C14.6566 11.4366 14.8046 12.0288 15.2488 12.2879C15.6559 12.547 16.137 12.4729 16.4701 12.1028L17.0993 12.5099C16.6182 13.1761 16.137 13.9164 15.6559 14.7306L14.9897 14.2865C15.1747 13.8794 15.0267 13.3612 14.6196 13.1391C14.1754 12.843 13.5832 12.9911 13.3242 13.4352C13.0281 13.8794 13.1761 14.4715 13.6203 14.7306C14.0274 14.9897 14.5085 14.9157 14.8416 14.5456L15.5078 14.9897C15.0637 15.6929 14.6196 16.4702 14.1754 17.2844L13.6573 16.9513C13.8423 16.5442 13.6943 16.026 13.2872 15.804C12.843 15.5079 12.2508 15.6559 11.9918 16.1001C11.6957 16.5442 11.8437 17.1364 12.2878 17.3955C12.695 17.6545 13.1761 17.5805 13.5092 17.2104L14.0644 17.5435C13.6573 18.2837 13.2501 19.061 12.806 19.9122L12.2508 19.5791C12.4359 19.172 12.2878 18.6538 11.8807 18.4318C11.4366 18.1357 10.8444 18.2837 10.5853 18.7279C10.2892 19.172 10.4373 19.7642 10.8814 20.0233C11.2885 20.2824 11.7697 20.2083 12.1028 19.8382L12.695 20.2083C12.5469 20.5044 12.3989 20.7635 12.2508 21.0596C12.1028 21.3557 12.0288 21.6888 11.9918 22.0219C11.9547 22.5401 12.0658 23.0582 12.3249 23.5024L12.9911 24.7237C13.3242 25.3529 13.4352 26.0562 13.2872 26.7594L11.0665 37.0116H12.3989L15.5449 21.7258L15.841 20.3564C15.6559 20.2083 15.5449 19.9863 15.5819 19.7272C15.6559 19.3941 15.989 19.172 16.3221 19.246C16.6552 19.3201 16.8773 19.6532 16.8033 19.9863C16.7662 20.2453 16.5442 20.4304 16.3221 20.4674L16.063 21.7628L12.806 37.0116H14.3975L17.5435 21.9479L18.6908 16.4702C18.5058 16.3221 18.3947 16.063 18.4318 15.841C18.5058 15.5079 18.8389 15.2858 19.172 15.3598C19.5051 15.4338 19.7272 15.767 19.6531 16.1001C19.6161 16.3591 19.3941 16.5442 19.172 16.5812L18.0246 22.0589L14.9157 37.0116H16.5072L19.5421 22.429L21.6147 12.584C21.4297 12.4359 21.3187 12.2138 21.3557 11.9548C21.4297 11.6217 21.7628 11.3996 22.0959 11.4736C22.429 11.5476 22.6511 11.8807 22.577 12.2138C22.54 12.4729 22.318 12.658 22.0959 12.695L20.0232 22.5771L17.0253 37.0116H18.6908L20.0973 29.0541C20.2083 28.4249 20.5044 27.8697 20.9855 27.4626L23.9835 24.8718C24.0205 24.8348 24.0945 24.7607 24.1315 24.7237C24.6127 24.2426 24.8347 23.5764 24.7977 22.9102L24.2055 15.5819C24.1315 14.5086 24.5016 13.4352 25.2419 12.658L26.3522 11.4736C26.8334 10.9555 26.9814 10.2522 26.7964 9.62304L25.649 5.55178Z" fill="white"/>
</g>
<path d="M60.3487 13.7552C60.3487 13.2038 60.2907 12.6524 60.1746 12.1011H62.264V9.86658H42.2987V12.1011H49.9018C49.6986 13.9293 49.0892 16.1057 47.3481 16.1057C46.3034 16.1057 45.5779 15.3803 44.8814 14.5387L43.3434 16.1928C44.301 17.4987 45.781 18.3983 47.3481 18.3983C49.3504 18.3983 50.5982 17.2085 51.2657 15.4383C51.701 16.512 52.4555 17.3826 53.5002 17.9049C51.1206 19.0947 48.741 20.6908 47.261 21.9386V24.5504L57.737 29.5127L59.5072 27.6845L58.1433 27.046V17.9049C59.5942 17.1504 60.3487 15.6414 60.3487 13.7552ZM52.6586 12.1011H57.5919C57.737 12.5073 57.795 13.0297 57.795 13.6101C57.795 15.003 57.2146 16.1348 55.6766 16.1348C53.7323 16.1348 52.7457 14.2485 52.6586 12.1011ZM55.6766 25.9433L49.7567 23.0994C51.3237 21.8806 53.4712 20.5167 55.5896 19.559V20.6328C55.5896 22.3159 55.6766 24.1151 55.8217 25.9433H55.6766Z" fill="black" fill-opacity="0.87"/>
<path d="M67.1229 28.7291V12.1011H70.4311V9.86658H67.1229V6.96464H64.5112V7.63209C64.5112 9.19913 64.8014 10.3889 64.9755 10.8823H64.8304C64.5692 10.534 63.9598 9.86658 62.5379 9.86658H61.1159V12.1011H61.9865C63.5826 12.1011 64.4241 12.7685 64.4241 14.7999V28.7291H67.1229Z" fill="black" fill-opacity="0.87"/>
<path d="M86.1669 27.1621L84.861 26.4947V12.1011H88.1692V9.86658H82.2202V14.5387C80.6242 15.5253 78.854 16.3959 77.316 16.3959C75.2556 16.3959 74.0948 15.5834 74.0948 14.1324C74.0948 12.8266 74.9944 12.1011 76.3874 12.1011C77.1419 12.1011 77.8673 12.2462 78.5928 12.5944L79.4054 10.505C78.4187 9.98265 77.287 9.7505 76.1552 9.7505C73.2823 9.7505 71.4541 11.5207 71.4541 14.0454C71.4541 16.6281 73.5435 17.992 75.836 18.1081V18.2532C75.836 18.2532 74.6172 18.7175 73.3694 19.443L71.7443 20.4006V22.7512L84.5708 29.1064L86.1669 27.1621ZM82.3653 25.3049L74.7333 21.4453L82.2202 17.2375V19.501C82.2202 21.2712 82.3073 23.4186 82.4814 25.3049H82.3653Z" fill="black" fill-opacity="0.87"/>
<path d="M93.025 28.7291V12.1011H96.3041V9.86658H92.9959C92.5897 3.91761 87.3372 0 79.8212 0C75.4973 0 73.0016 1.77018 73.0016 4.32388C73.0016 6.70347 75.1781 8.27051 78.7765 8.27051C80.1404 8.27051 81.5623 8.00934 82.4329 7.71915V9.86658H84.8995V5.2525L84.5513 5.04937C83.1874 5.5427 81.4753 6.09406 79.1827 6.09406C76.4259 6.09406 75.7294 5.19446 75.7294 4.3529C75.7294 3.16311 76.9773 2.29253 80.0243 2.29253C85.596 2.29253 89.9199 4.81721 90.2971 9.86658H87.018V12.1011H90.3262V28.7291H93.025Z" fill="black" fill-opacity="0.87"/>
<path d="M111.692 28.7291V12.1011H115V9.86658H95.1796V12.1011H108.993V15.003C108.993 18.05 109.196 19.7912 109.283 20.2845H109.167C107.919 17.8759 105.656 15.6414 102.202 15.6414C99.0102 15.6414 96.9788 17.4987 96.9788 20.4586C96.9788 21.7645 97.4432 22.7512 98.1977 23.4476L100.577 22.4029C100.055 21.9386 99.6776 21.2712 99.6776 20.4877C99.6776 19.0657 100.606 18.1371 102.376 18.1371C106.439 18.1371 108.993 23.7959 108.993 28.2358V28.7291H111.692Z" fill="black" fill-opacity="0.87"/>
</svg>
